<svg width="378" height="59" viewBox="0 0 378 59" fill="none" xmlns="http://www.w3.org/2000/svg">
    <path d="M3.90234 19.5254H9.47461V33.7461L23.9766 19.5254H31.1133L17.5781 32.6387L31.1133 47H23.6953L13.5703 36.5234L9.47461 40.4785V47H3.90234V19.5254ZM33.1523 19.5254H38.7598V47H33.1523V19.5254ZM45.8438 19.5254H51.416L68.5371 28.4902V19.5254H74.1094V47H68.5371V34.3965L51.416 25.4844V47H45.8438V19.5254ZM80.2617 33.1836C80.2617 31.1094 80.6426 29.2109 81.4043 27.4883C82.166 25.7656 83.2324 24.2891 84.6035 23.0586C85.9863 21.8164 87.6387 20.8555 89.5605 20.1758C91.4941 19.4961 93.6328 19.1562 95.9766 19.1562C98.3086 19.1562 100.441 19.4961 102.375 20.1758C104.309 20.8555 105.961 21.8164 107.332 23.0586C108.715 24.2891 109.787 25.7656 110.549 27.4883C111.311 29.2109 111.691 31.1094 111.691 33.1836C111.691 35.2695 111.311 37.1855 110.549 38.9316C109.787 40.666 108.715 42.1602 107.332 43.4141C105.961 44.668 104.309 45.6465 102.375 46.3496C100.441 47.041 98.3086 47.3867 95.9766 47.3867C93.6328 47.3867 91.4941 47.041 89.5605 46.3496C87.6387 45.6465 85.9863 44.668 84.6035 43.4141C83.2324 42.1602 82.166 40.666 81.4043 38.9316C80.6426 37.1855 80.2617 35.2695 80.2617 33.1836ZM85.834 33.1836C85.834 34.6016 86.0859 35.8789 86.5898 37.0156C87.1055 38.1523 87.8145 39.125 88.7168 39.9336C89.6309 40.7305 90.7031 41.3457 91.9336 41.7793C93.1758 42.2129 94.5234 42.4297 95.9766 42.4297C97.4297 42.4297 98.7715 42.2129 100.002 41.7793C101.244 41.3457 102.316 40.7305 103.219 39.9336C104.121 39.125 104.83 38.1523 105.346 37.0156C105.861 35.8789 106.119 34.6016 106.119 33.1836C106.119 31.7656 105.861 30.4941 105.346 29.3691C104.83 28.2441 104.121 27.2949 103.219 26.5215C102.316 25.7363 101.244 25.1387 100.002 24.7285C98.7715 24.3184 97.4297 24.1133 95.9766 24.1133C94.5234 24.1133 93.1758 24.3184 91.9336 24.7285C90.7031 25.1387 89.6309 25.7363 88.7168 26.5215C87.8145 27.2949 87.1055 28.2441 86.5898 29.3691C86.0859 30.4941 85.834 31.7656 85.834 33.1836ZM116.385 31.0742H132.504V34.9766H116.385V31.0742ZM138.832 19.5254H162.229V24.4121H144.404V29.8965H160.189V34.4844H144.404V42.1309H162.598V47H138.832V19.5254ZM176.59 33.043L166.025 19.5254H172.846L180.141 28.9824L187.471 19.5254H194.186L183.428 32.9902L194.555 47H187.717L179.895 37.1211L171.896 47H165.164L176.59 33.043ZM198.738 19.5254H213.223C215.332 19.5254 217.16 19.7539 218.707 20.2109C220.254 20.668 221.537 21.3301 222.557 22.1973C223.576 23.0527 224.332 24.1016 224.824 25.3438C225.328 26.5859 225.58 27.9863 225.58 29.5449C225.58 31.0098 225.334 32.3633 224.842 33.6055C224.35 34.8477 223.594 35.9258 222.574 36.8398C221.566 37.7422 220.289 38.4512 218.742 38.9668C217.195 39.4707 215.367 39.7227 213.258 39.7227L204.311 39.7051V47H198.738V19.5254ZM213.363 34.8887C214.418 34.8887 215.338 34.7656 216.123 34.5195C216.92 34.2617 217.582 33.9043 218.109 33.4473C218.648 32.9785 219.047 32.416 219.305 31.7598C219.574 31.0918 219.709 30.3535 219.709 29.5449C219.709 27.916 219.176 26.6504 218.109 25.748C217.055 24.834 215.473 24.377 213.363 24.377H204.311V34.8887H213.363ZM231.68 19.5254H255.076V24.4121H237.252V29.8965H253.037V34.4844H237.252V42.1309H255.445V47H231.68V19.5254ZM261.633 19.5254H275.607C277.717 19.5254 279.545 19.748 281.092 20.1934C282.639 20.627 283.922 21.2598 284.941 22.0918C285.961 22.9238 286.717 23.9375 287.209 25.1328C287.713 26.3281 287.965 27.6816 287.965 29.1934C287.965 30.2129 287.842 31.1855 287.596 32.1113C287.35 33.0254 286.969 33.8691 286.453 34.6426C285.949 35.416 285.311 36.1074 284.537 36.7168C283.764 37.3145 282.855 37.8125 281.812 38.2109L287.789 47H280.969L275.801 39.1953H275.643L267.205 39.1777V47H261.633V19.5254ZM275.748 34.3613C276.803 34.3613 277.723 34.2383 278.508 33.9922C279.305 33.7461 279.967 33.4004 280.494 32.9551C281.033 32.5098 281.432 31.9707 281.689 31.3379C281.959 30.6934 282.094 29.9785 282.094 29.1934C282.094 27.6582 281.566 26.4746 280.512 25.6426C279.457 24.7988 277.869 24.377 275.748 24.377H267.205V34.3613H275.748ZM302.854 24.4121H292.711V19.5254H318.568V24.4121H308.426V47H302.854V24.4121Z"
          fill="#EDF1FD"/>
    <path d="M368.781 31.4304L359.562 27.7374V20.3476L368.781 16.6527C369.801 16.6527 370.625 17.4806 370.625 18.5002V29.5848C370.625 30.6044 369.801 31.4304 368.781 31.4304ZM351.266 18.4983C346.684 18.4983 342.969 14.7758 342.969 10.1849C342.969 5.59394 346.684 1.87141 351.266 1.87141C355.847 1.87141 359.562 5.59394 359.562 10.1849C359.562 14.7777 355.847 18.4983 351.266 18.4983ZM334.672 18.4983C330.09 18.4983 326.375 14.7758 326.375 10.1849C326.375 5.59394 330.09 1.87141 334.672 1.87141C339.254 1.87141 342.969 5.59394 342.969 10.1849C342.969 14.7777 339.254 18.4983 334.672 18.4983ZM357.719 18.4983V35.1253H347.427C347.331 36.6593 346.66 37.9813 345.662 38.7298H346.702L354.057 55.3162H352.224L349.772 49.7849H344.868V59H343.03V49.7849H338.048L335.557 55.3162H333.722L341.193 38.7298H341.888C340.891 37.9813 340.22 36.6593 340.124 35.1253H328.219V18.4983H357.719ZM343.028 39.3014C342.952 39.2829 342.882 39.2442 342.808 39.2184L338.877 47.943H343.028V39.3014ZM344.866 39.1686V47.9449H348.954L345.034 39.1041C344.98 39.1299 344.925 39.1465 344.866 39.1686Z"
          fill="#EDF1FD"/>
</svg>
